<svg width="349" height="204" viewBox="0 0 349 204" fill="none" xmlns="http://www.w3.org/2000/svg">
    <g clip-path="url(#clip0_3_274)">
        <g filter="url(#filter0_d_3_274)">
            <path d="M5.7735 10C2.20085 3.81198 2.20085 -3.81198 5.7735 -10L31.7265 -54.9519C35.2992 -61.1399 41.9017 -64.9519 49.047 -64.9519H100.953C108.098 -64.9519 114.701 -61.1399 118.274 -54.9519L144.226 -10C147.799 -3.81198 147.799 3.81198 144.226 10L118.274 54.9519C114.701 61.1399 108.098 64.9519 100.953 64.9519H49.047C41.9017 64.9519 35.2992 61.1399 31.7265 54.9519L5.7735 10Z" fill="#00000060"/>
        </g>
        <path d="M5.7735 214C2.20085 207.812 2.20085 200.188 5.7735 194L31.7265 149.048C35.2992 142.86 41.9017 139.048 49.047 139.048H100.953C108.098 139.048 114.701 142.86 118.274 149.048L144.226 194C147.799 200.188 147.799 207.812 144.226 214L118.274 258.952C114.701 265.14 108.098 268.952 100.953 268.952H49.047C41.9017 268.952 35.2992 265.14 31.7265 258.952L5.7735 214Z" fill="#00000060"/>
        <g filter="url(#filter1_d_3_274)">
            <path d="M179.774 112C176.201 105.812 176.201 98.188 179.774 92L205.726 47.0481C209.299 40.8601 215.902 37.0481 223.047 37.0481H274.953C282.098 37.0481 288.701 40.8601 292.274 47.0481L318.226 92C321.799 98.188 321.799 105.812 318.226 112L292.274 156.952C288.701 163.14 282.098 166.952 274.953 166.952H223.047C215.902 166.952 209.299 163.14 205.726 156.952L179.774 112Z" fill="#00000060"/>
        </g>
    </g>
    <defs>
        <filter id="filter0_d_3_274" x="-4.90598" y="-67.9519" width="159.812" height="145.904" filterUnits="userSpaceOnUse" color-interpolation-filters="sRGB">
            <feFlood flood-opacity="0" result="BackgroundImageFix"/>
            <feColorMatrix in="SourceAlpha" type="matrix" values="0 0 0 0 0 0 0 0 0 0 0 0 0 0 0 0 0 0 127 0" result="hardAlpha"/>
            <feOffset dy="5"/>
            <feGaussianBlur stdDeviation="4"/>
            <feComposite in2="hardAlpha" operator="out"/>
            <feColorMatrix type="matrix" values="0 0 0 0 0 0 0 0 0 0 0 0 0 0 0 0 0 0 0.25 0"/>
            <feBlend mode="normal" in2="BackgroundImageFix" result="effect1_dropShadow_3_274"/>
            <feBlend mode="normal" in="SourceGraphic" in2="effect1_dropShadow_3_274" result="shape"/>
        </filter>
        <filter id="filter1_d_3_274" x="169.094" y="34.0481" width="159.812" height="145.904" filterUnits="userSpaceOnUse" color-interpolation-filters="sRGB">
            <feFlood flood-opacity="0" result="BackgroundImageFix"/>
            <feColorMatrix in="SourceAlpha" type="matrix" values="0 0 0 0 0 0 0 0 0 0 0 0 0 0 0 0 0 0 127 0" result="hardAlpha"/>
            <feOffset dy="5"/>
            <feGaussianBlur stdDeviation="4"/>
            <feComposite in2="hardAlpha" operator="out"/>
            <feColorMatrix type="matrix" values="0 0 0 0 0 0 0 0 0 0 0 0 0 0 0 0 0 0 0.25 0"/>
            <feBlend mode="normal" in2="BackgroundImageFix" result="effect1_dropShadow_3_274"/>
            <feBlend mode="normal" in="SourceGraphic" in2="effect1_dropShadow_3_274" result="shape"/>
        </filter>
        <clipPath id="clip0_3_274">
            <rect width="349" height="204" fill="white"/>
        </clipPath>
    </defs>
</svg>
